<svg viewBox="0 0 962 202" fill="none" xmlns="http://www.w3.org/2000/svg"><path d="M310.846 43.922H320.632V63.8822H307.966C298.037 63.8822 290.638 66.2483 285.737 70.9803C280.852 75.7123 278.401 83.4772 278.401 94.2751V159.698H258.4V44.3666H278.401V62.7707C278.401 63.8028 278.926 64.3269 279.961 64.3269C280.549 64.3269 280.995 64.1839 281.297 63.8822C281.6 63.5805 281.886 62.993 282.188 62.1038C286.039 49.9879 295.602 43.922 310.862 43.922H310.846ZM441.502 68.646C446.753 77.8877 449.395 89.0191 449.395 102.024C449.395 115.029 446.769 126.161 441.502 135.402C436.235 144.644 429.425 151.552 421.055 156.141C412.685 160.73 403.679 163.016 394.052 163.016C375.084 163.016 361.75 155.474 354.048 140.388C353.459 139.213 352.712 138.61 351.82 138.61C350.929 138.61 350.484 139.055 350.484 139.944V201.825H330.482V44.3666H350.484V64.1045C350.484 64.9938 350.929 65.4384 351.82 65.4384C352.712 65.4384 353.444 64.8509 354.048 63.6599C361.75 48.5746 375.084 41.032 394.052 41.032C403.679 41.032 412.685 43.3186 421.055 47.9077C429.425 52.4968 436.235 59.4043 441.502 68.646ZM429.393 102.024C429.393 88.4157 425.733 77.8083 418.397 70.2022C411.062 62.596 401.403 58.785 389.389 58.785C377.376 58.785 367.717 62.596 360.381 70.2022C353.046 77.8242 350.357 88.4316 350.357 102.024C350.357 115.617 353.046 126.24 360.381 133.846C367.717 141.468 377.392 145.263 389.389 145.263C401.387 145.263 411.062 141.452 418.397 133.846C425.733 126.24 429.393 115.617 429.393 102.024ZM111.004 68.8207C116.255 78.0624 118.897 89.1938 118.897 102.199C118.897 115.204 116.271 126.335 111.004 135.577C105.737 144.819 98.9266 151.726 90.5568 156.315C82.1869 160.904 73.1806 163.191 63.5536 163.191C44.5862 163.191 31.2517 155.648 23.5502 140.563C22.9614 139.388 22.2135 138.785 21.3225 138.785C20.4314 138.785 19.9858 139.229 19.9858 140.119V202H0V44.5413H20.0017V64.2792C20.0017 65.1685 20.4473 65.6131 21.3384 65.6131C22.2295 65.6131 22.9614 65.0256 23.5661 63.8346C31.2676 48.7493 44.6021 41.2067 63.5696 41.2067C73.1965 41.2067 82.2028 43.4933 90.5727 48.0824C98.9426 52.6715 105.753 59.579 111.02 68.8207H111.004ZM98.8948 102.199C98.8948 88.5904 95.235 77.983 87.8994 70.3769C80.5639 62.7707 70.9051 58.9597 58.8913 58.9597C46.8776 58.9597 37.2188 62.7707 29.8833 70.3769C22.5477 77.9989 19.8585 88.6062 19.8585 102.199C19.8585 115.792 22.5477 126.415 29.8833 134.021C37.2188 141.643 46.8776 145.438 58.8913 145.438C70.9051 145.438 80.5639 141.627 87.8994 134.021C95.235 126.415 98.8948 115.792 98.8948 102.199ZM221.578 123.08H242.694C239.878 133.878 234.133 143.231 225.477 151.139C216.805 159.047 204.393 163.001 188.242 163.001C176.085 163.001 165.392 160.523 156.131 155.569C146.87 150.615 139.726 143.564 134.682 134.386C129.637 125.224 127.123 114.426 127.123 102.008C127.123 89.5908 129.574 78.7929 134.459 69.6305C139.344 60.4682 146.202 53.4019 155.017 48.4476C163.833 43.4933 174.16 41.0161 186.015 41.0161C197.869 41.0161 207.687 43.4615 215.914 48.3365C224.14 53.2114 230.283 59.6901 234.356 67.7409C238.43 75.8076 240.466 84.6364 240.466 94.2434V107.55H148.239C148.971 119.079 152.869 128.257 159.902 135.053C166.936 141.849 176.388 145.263 188.242 145.263C197.869 145.263 205.252 143.31 210.36 139.388C215.468 135.466 219.208 130.035 221.578 123.08ZM148.462 90.9246H218.253C218.253 80.873 215.659 72.9969 210.472 67.2963C205.284 61.6115 197.137 58.7532 186.03 58.7532C175.656 58.7532 167.174 61.5321 160.587 67.074C153.999 72.6158 149.957 80.5713 148.477 90.9087L148.462 90.9246ZM465.227 159.682H485.229V0H465.227V159.698V159.682ZM742.753 31.7744H766.113V6.8122H742.753V31.7744ZM825.163 142.5C821.535 142.866 819.339 143.056 818.607 143.056C817.573 143.056 816.745 142.755 816.157 142.167C815.568 141.579 815.266 140.77 815.266 139.722C815.266 138.991 815.457 136.8 815.823 133.179C816.189 129.559 816.379 123.969 816.379 116.443V61.2622H844.91L839.293 44.3666H816.395V13.3068H796.394V44.3508H774.642V61.2463H796.394V121.969C796.394 134.688 799.512 144.152 805.734 150.361C811.956 156.569 821.44 159.682 834.185 159.682H849.748V141.945H841.966C834.408 141.945 828.807 142.135 825.179 142.5H825.163ZM942.198 44.3508L909.084 141.119C908.639 142.31 907.939 143.866 905.663 143.866C903.388 143.866 902.688 142.31 902.242 141.119L869.129 44.3508H848.729L887.078 159.682H900.635C901.526 159.682 902.194 159.761 902.64 159.904C903.086 160.047 903.451 160.412 903.754 161.016C904.343 161.905 904.263 163.239 903.531 165.001L897.309 181.849C896.418 184.072 894.716 185.184 892.201 185.184C891.31 185.184 889.242 184.993 885.98 184.628C882.718 184.263 878.501 184.072 873.314 184.072H857.083V201.809H878.421C890.865 201.809 898.359 199.698 904.804 195.49C911.248 191.281 916.245 183.85 919.809 173.195L961.229 48.7652V44.3349H942.198V44.3508ZM677.418 87.3835L646.086 44.3508H624.08V48.7811L661.633 98.6896L615.853 155.251V159.682H638.305L674.76 113.33L708.765 159.682H730.326V155.251L690.545 102.024L733.667 49.0193V44.3666H711.215L677.433 87.3994L677.418 87.3835ZM744.886 159.682H764.887V44.3666H744.886V159.698V159.682ZM616.76 123.08C613.943 133.878 608.199 143.231 599.543 151.139C590.871 159.047 578.459 163.001 562.308 163.001C550.151 163.001 539.458 160.523 530.197 155.569C520.936 150.615 513.792 143.564 508.747 134.386C503.703 125.224 501.189 114.426 501.189 102.008C501.189 89.5908 503.64 78.7929 508.525 69.6305C513.41 60.4682 520.268 53.4019 529.083 48.4476C537.899 43.4933 548.226 41.0161 560.08 41.0161C571.935 41.0161 581.753 43.4615 589.98 48.3365C598.206 53.2114 604.348 59.6901 608.422 67.7409C612.495 75.8076 614.532 84.6364 614.532 94.2434V107.55H522.305C523.037 119.079 526.935 128.257 533.968 135.053C541.002 141.849 550.453 145.263 562.308 145.263C571.935 145.263 579.318 143.31 584.426 139.388C589.534 135.466 593.273 130.035 595.644 123.08H616.76ZM522.527 90.9246H592.319C592.319 80.873 589.725 72.9969 584.538 67.2963C579.35 61.6115 571.203 58.7532 560.096 58.7532C549.721 58.7532 541.24 61.5321 534.653 67.074C528.065 72.6158 524.023 80.5713 522.543 90.9087L522.527 90.9246Z" class=" block fill-textMain dark:fill-textMainDark"></path></svg>